{"title":"13 Hours The Secret Soldiers of Benghazi 2016 1080p Bluray Hindi","uid":15303133,"size":3261270167,"categoryP":"video","categoryS":"hd___movies","magnet":"?xt=urn:btih:86b34059ab772820c53363fd833f06d7c0ccbb68&amp;dn=13+Hours+The+Secret+Soldiers+of+Benghazi+2016+1080p+Bluray+Hindi&amp;tr=udp%3A%2F%2Ftracker.leechers-paradise.org%3A6969&amp;tr=udp%3A%2F%2Fzer0day.ch%3A1337&amp;tr=udp%3A%2F%2Fopen.demonii.com%3A1337&amp;tr=udp%3A%2F%2Ftracker.coppersurfer.tk%3A6969&amp;tr=udp%3A%2F%2Fexodus.desync.com%3A6969","seeders":4,"leechers":5,"uploader":"SaM","files":4,"time":1468507761,"description":"- HollywooD MoviE -\r\n**- 13 Hours - The Secret Soldiers of Benghazi -**\r\n- (2016) -\r\n** 1080p Blu-Ray / x264 / AAC 5.1 **\r\nHindi Dubbed AAC 5.1 Audio\r\n\r\n ~* SCREENSHOTS *~\r\n \nhttp://extraimago.com/image/a69e \nhttp://extraimago.com/image/a694 \nhttp://extraimago.com/image/a69B \nhttp://extraimago.com/image/a69C \nhttp://extraimago.com/image/a69Y \nhttp://extraimago.com/image/a69p \nhttp://extraimago.com/image/a69r \nhttp://extraimago.com/image/a69G \nhttp://extraimago.com/image/a69P \nhttp://extraimago.com/image/a69X \nhttp://extraimago.com/image/a69g\r\n\r\n[ Specs ]\r\nGeneral\r\nSource = BD50 @ DDR\r\nFormat : Matroska\r\nFile size : 3.02 GiB\r\nDuration : 2h 24mn\r\nOverall bit rate : 2 993 Kbps\r\nEncoded date : UTC 2016-07-13 22:43:08\r\n\r\nVideo\r\nFormat : AVC\r\nFormat profile :   \r\nBit rate : 2 800 Kbps\r\nWidth : 1 920 pixels\r\nHeight : 800 pixels\r\nDisplay aspect ratio : 2.40:1\r\nFrame rate mode : Constant\r\nFrame rate : 23.976 (24000/1001) fps\r\nColor space : YUV\r\nChroma subsampling : 4:2:0\r\nBit depth : 8 bits\r\nScan type : Progressive\r\nBits/(Pixel*Frame) : 0.076\r\nStream size : 2.82 GiB (94%)\r\nTransfer characteristics : BT.709\r\n\r\nAudio #1\r\nFormat : AAC\r\nFormat/Info : Advanced Audio Codec\r\nFormat profile : LC\r\nCodec ID : A_AAC\r\nDuration : 2h 24mn\r\nBit rate : 192 Kbps\r\nChannel(s) : 6 channels\r\nChannel positions : Front: L C R, Side: L R, LFE\r\nSampling rate : 48.0 KHz\r\nFrame rate : 46.875 fps (1024 spf)\r\nCompression mode : Lossy\r\nDelay relative to video : 3s 845ms\r\nStream size : 198 MiB (6%)\r\nLanguage : Hindi\r\nDefault : Yes\r\nForced : No\r\n\r\nChapters: YES\r\nSample : Included\r\n\r\nA DDR Exclusive Encode...!","torrent":{"xt":"urn:btih:86b34059ab772820c53363fd833f06d7c0ccbb68","amp;dn":"13+Hours+The+Secret+Soldiers+of+Benghazi+2016+1080p+Bluray+Hindi","amp;tr":["udp%3A%2F%2Ftracker.leechers-paradise.org%3A6969","udp%3A%2F%2Fzer0day.ch%3A1337","udp%3A%2F%2Fopen.demonii.com%3A1337","udp%3A%2F%2Ftracker.coppersurfer.tk%3A6969","udp%3A%2F%2Fexodus.desync.com%3A6969"],"infoHash":"86b34059ab772820c53363fd833f06d7c0ccbb68","infoHashBuffer":{"type":"Buffer","data":[134,179,64,89,171,119,40,32,197,51,99,253,131,63,6,215,192,204,187,104]},"announce":[],"urlList":[]}}